<svg width="492" height="109" viewBox="0 0 492 109" fill="none" xmlns="http://www.w3.org/2000/svg">
<path d="M40.6671 82.7671C41.1859 83.2213 41.7418 83.4484 42.3347 83.4484H56.0095C56.159 83.4484 56.3043 83.4432 56.4456 83.4328C55.952 83.3745 55.4851 83.1526 55.0449 82.7673C54.6002 82.2374 54.3778 81.6698 54.3778 81.0642C54.3778 80.6101 54.4149 80.2695 54.489 80.0424L80.6157 7.15274C80.838 6.24446 81.3198 5.48756 82.061 4.88204C82.8022 4.27652 83.7657 3.97375 84.9516 3.97375H86.5L70.5737 3.97363C69.3878 3.97363 68.4243 4.2764 67.6831 4.88192C66.9419 5.48744 66.4602 6.24434 66.2378 7.15262L40.1112 80.0423C40.0371 80.2694 40 80.61 40 81.0641C40 81.6696 40.2224 82.2373 40.6671 82.7671Z" fill="#2352AE"/>
<path d="M20.6671 82.7671C21.1859 83.2213 21.7418 83.4484 22.3347 83.4484H36.0095C36.159 83.4484 36.3043 83.4432 36.4456 83.4328C35.952 83.3745 35.4851 83.1526 35.0449 82.7673C34.6002 82.2374 34.3778 81.6698 34.3778 81.0642C34.3778 80.6101 34.4149 80.2695 34.489 80.0424L60.6157 7.15274C60.838 6.24446 61.3198 5.48756 62.061 4.88204C62.8022 4.27652 63.7657 3.97375 64.9516 3.97375H66.5L50.5737 3.97363C49.3878 3.97363 48.4243 4.2764 47.6831 4.88192C46.9419 5.48744 46.4602 6.24434 46.2378 7.15262L20.1112 80.0423C20.0371 80.2694 20 80.61 20 81.0641C20 81.6696 20.2224 82.2373 20.6671 82.7671Z" fill="#3470E3"/>
<path d="M0.667063 82.7671C1.18589 83.2213 1.74178 83.4484 2.33472 83.4484H16.0095C16.159 83.4484 16.3043 83.4432 16.4456 83.4328C15.952 83.3745 15.4851 83.1526 15.0449 82.7673C14.6002 82.2374 14.3778 81.6698 14.3778 81.0642C14.3778 80.6101 14.4149 80.2695 14.489 80.0424L40.6157 7.15274C40.838 6.24446 41.3198 5.48756 42.061 4.88204C42.8022 4.27652 43.7657 3.97375 44.9516 3.97375H46.5L30.5737 3.97363C29.3878 3.97363 28.4243 4.2764 27.6831 4.88192C26.9419 5.48744 26.4602 6.24434 26.2378 7.15262L0.111177 80.0423C0.0370591 80.2694 0 80.61 0 81.0641C0 81.6696 0.222354 82.2373 0.667063 82.7671Z" fill="#75A4FF"/>
<path d="M56.7126 83.4485C56.1196 83.4485 55.5637 83.2214 55.0449 82.7673C54.6002 82.2374 54.3778 81.6697 54.3778 81.0642C54.3778 80.6101 54.4149 80.2695 54.489 80.0424L80.6157 7.15272C80.838 6.24444 81.3198 5.48754 82.061 4.88202C82.8021 4.27649 83.7657 3.97373 84.9516 3.97373H101.406C102.592 3.97373 103.555 4.27649 104.296 4.88202C105.038 5.48754 105.519 6.24444 105.742 7.15272L131.757 80.0424L131.98 81.0642C131.98 81.6697 131.72 82.2374 131.201 82.7673C130.757 83.2214 130.201 83.4485 129.534 83.4485H115.859C114.08 83.4485 112.894 82.6537 112.301 81.0642L107.965 69.4836H78.2809L74.0562 81.0642C73.4633 82.6537 72.2403 83.4485 70.3874 83.4485H56.7126ZM103.518 53.1345L93.1787 23.1612L82.8392 53.1345H103.518Z" fill="white"/>
<path d="M166.11 108.426C159.069 108.426 153.361 107.253 148.989 104.907C144.616 102.56 141.466 99.8732 139.538 96.8456C137.685 93.818 136.759 91.2824 136.759 89.2388C136.759 88.5576 137.055 87.952 137.648 87.4222C138.241 86.8924 138.908 86.6275 139.65 86.6275H153.769C154.51 86.6275 155.066 86.7788 155.437 87.0816C155.882 87.46 156.289 88.0656 156.66 88.8982C157.401 90.639 158.402 92.0015 159.662 92.9854C160.922 94.0451 162.886 94.5749 165.554 94.5749C168.963 94.5749 171.483 93.7045 173.114 91.9636C174.745 90.2984 175.56 87.46 175.56 83.4485V75.8416C171.78 80.0802 166.369 82.1996 159.328 82.1996C151.842 82.1996 146.098 79.9667 142.096 75.501C138.167 70.9596 136.018 64.4124 135.647 55.8594L135.536 52.7939C135.536 43.6354 137.537 36.4448 141.54 31.2222C145.542 25.9239 151.471 23.2747 159.328 23.2747C163.108 23.2747 166.443 24.0316 169.334 25.5454C172.225 26.9836 174.67 28.9515 176.672 31.4493V27.2485C176.672 26.4159 176.931 25.7347 177.45 25.2048C178.043 24.675 178.71 24.4101 179.451 24.4101H192.236C193.052 24.4101 193.719 24.7129 194.238 25.3184C194.831 25.8482 195.127 26.4916 195.127 27.2485V81.859C195.127 90.4877 192.607 97.0727 187.567 101.614C182.527 106.156 175.375 108.426 166.11 108.426ZM165.332 67.44C168.667 67.44 171.15 66.4182 172.78 64.3745C174.411 62.2552 175.338 59.606 175.56 56.4271C175.634 55.8972 175.671 54.724 175.671 52.9075C175.671 51.1666 175.634 50.0312 175.56 49.5014C175.412 46.3224 174.485 43.7111 172.78 41.6675C171.15 39.5481 168.667 38.4885 165.332 38.4885C161.848 38.4885 159.328 39.5481 157.772 41.6675C156.215 43.7868 155.363 46.7009 155.214 50.4097L155.103 52.9075C155.103 57.3732 155.844 60.9306 157.327 63.5798C158.809 66.1533 161.477 67.44 165.332 67.44Z" fill="white"/>
<path d="M208.891 15.8949C208.075 15.8949 207.408 15.63 206.89 15.1002C206.371 14.5704 206.111 13.8892 206.111 13.0566V2.83838C206.111 2.00579 206.371 1.32458 206.89 0.794744C207.408 0.264915 208.075 0 208.891 0H222.232C223.047 0 223.714 0.264915 224.233 0.794744C224.752 1.32458 225.011 2.00579 225.011 2.83838V13.0566C225.011 13.8892 224.752 14.5704 224.233 15.1002C223.714 15.63 223.047 15.8949 222.232 15.8949H208.891ZM209.002 83.4485C208.187 83.4485 207.52 83.1835 207.001 82.6537C206.482 82.1239 206.223 81.4427 206.223 80.6101V27.2485C206.223 26.4159 206.482 25.7347 207.001 25.2048C207.52 24.675 208.187 24.4101 209.002 24.4101H222.121C222.936 24.4101 223.603 24.675 224.122 25.2048C224.641 25.7347 224.9 26.4159 224.9 27.2485V80.6101C224.9 81.367 224.641 82.0482 224.122 82.6537C223.603 83.1835 222.936 83.4485 222.121 83.4485H209.002Z" fill="white"/>
<path d="M238.813 83.4485C238.072 83.4485 237.405 83.1835 236.812 82.6537C236.293 82.0482 236.034 81.367 236.034 80.6101V5.67676C236.034 4.84417 236.293 4.16296 236.812 3.63313C237.405 3.1033 238.072 2.83838 238.813 2.83838H251.932C252.748 2.83838 253.415 3.1033 253.934 3.63313C254.452 4.16296 254.712 4.84417 254.712 5.67676V80.6101C254.712 81.4427 254.452 82.1239 253.934 82.6537C253.415 83.1835 252.748 83.4485 251.932 83.4485H238.813Z" fill="white"/>
<path d="M293.528 84.5838C284.634 84.5838 277.63 82.1239 272.515 77.204C267.401 72.2842 264.733 65.1314 264.511 55.7458V51.7721C264.807 42.8407 267.512 35.8772 272.627 30.8816C277.815 25.8104 284.745 23.2747 293.417 23.2747C299.717 23.2747 305.016 24.5993 309.315 27.2485C313.688 29.8219 316.949 33.3794 319.099 37.9208C321.322 42.4622 322.434 47.6848 322.434 53.5887V56.3135C322.434 57.0704 322.175 57.7516 321.656 58.3572C321.137 58.887 320.47 59.1519 319.655 59.1519H284.078V59.9467C284.226 63.5041 285.078 66.3803 286.635 68.5753C288.191 70.7704 290.452 71.8679 293.417 71.8679C295.27 71.8679 296.789 71.4894 297.975 70.7325C299.161 69.8999 300.236 68.9159 301.199 67.7806C301.866 66.948 302.385 66.456 302.756 66.3046C303.2 66.0776 303.867 65.964 304.757 65.964H318.543C319.21 65.964 319.766 66.1911 320.211 66.6452C320.729 67.0237 320.989 67.5535 320.989 68.2347C320.989 70.2027 319.877 72.4734 317.653 75.0469C315.504 77.6203 312.354 79.8532 308.203 81.7454C304.053 83.6377 299.161 84.5838 293.528 84.5838ZM302.867 47.9119V47.6848C302.867 43.976 302.014 41.0619 300.31 38.9426C298.679 36.7476 296.382 35.6501 293.417 35.6501C290.526 35.6501 288.229 36.7476 286.524 38.9426C284.893 41.0619 284.078 43.976 284.078 47.6848V47.9119H302.867Z" fill="white"/>
<path d="M389.656 84.5838C379.057 84.5838 370.756 81.9725 364.753 76.7499C358.823 71.4516 355.673 63.8069 355.303 53.8157C355.228 51.7721 355.191 48.4417 355.191 43.8246C355.191 39.1318 355.228 35.7258 355.303 33.6065C355.673 23.7667 358.897 16.1977 364.975 10.8994C371.053 5.52538 379.28 2.83838 389.656 2.83838C396.179 2.83838 402.034 3.97373 407.222 6.24444C412.411 8.43946 416.487 11.6184 419.452 15.7814C422.491 19.8687 424.047 24.675 424.121 30.2004V30.4275C424.121 31.033 423.862 31.5628 423.343 32.017C422.898 32.3954 422.379 32.5846 421.787 32.5846H406.778C405.814 32.5846 405.073 32.3954 404.554 32.017C404.035 31.5628 403.591 30.7681 403.22 29.6327C402.182 25.7725 400.552 23.0855 398.328 21.5717C396.105 19.9822 393.177 19.1875 389.545 19.1875C380.799 19.1875 376.278 24.183 375.982 34.1741C375.907 36.2178 375.87 39.3589 375.87 43.5976C375.87 47.8362 375.907 51.0531 375.982 53.2481C376.278 63.2392 380.799 68.2347 389.545 68.2347C393.177 68.2347 396.142 67.44 398.439 65.8505C400.737 64.1853 402.33 61.4983 403.22 57.7895C403.516 56.6541 403.924 55.8972 404.443 55.5188C404.962 55.0646 405.74 54.8376 406.778 54.8376H421.787C422.454 54.8376 423.009 55.0646 423.454 55.5188C423.973 55.9729 424.195 56.5406 424.121 57.2218C424.047 62.7472 422.491 67.5914 419.452 71.7543C416.487 75.8416 412.411 79.0206 407.222 81.2913C402.034 83.4863 396.179 84.5838 389.656 84.5838Z" fill="white"/>
<path d="M461.938 84.5838C452.747 84.5838 445.669 82.351 440.703 77.8852C435.737 73.4195 433.032 67.1372 432.587 59.0384C432.513 58.0544 432.476 56.3514 432.476 53.9293C432.476 51.5072 432.513 49.8042 432.587 48.8202C433.032 40.797 435.811 34.5526 440.926 30.0869C446.04 25.5454 453.044 23.2747 461.938 23.2747C470.906 23.2747 477.948 25.5454 483.062 30.0869C488.176 34.5526 490.955 40.797 491.4 48.8202C491.474 49.8042 491.511 51.5072 491.511 53.9293C491.511 56.3514 491.474 58.0544 491.4 59.0384C490.955 67.1372 488.25 73.4195 483.284 77.8852C478.318 82.351 471.203 84.5838 461.938 84.5838ZM461.938 70.7325C465.199 70.7325 467.608 69.7485 469.165 67.7806C470.721 65.737 471.61 62.6337 471.833 58.4707C471.907 57.7138 471.944 56.2 471.944 53.9293C471.944 51.6586 471.907 50.1448 471.833 49.3879C471.61 45.3006 470.684 42.2351 469.053 40.1915C467.497 38.1479 465.125 37.126 461.938 37.126C455.786 37.126 452.525 41.2133 452.154 49.3879L452.043 53.9293L452.154 58.4707C452.303 62.6337 453.155 65.737 454.711 67.7806C456.342 69.7485 458.751 70.7325 461.938 70.7325Z" fill="white"/>
</svg>
